#!OML:ASF H:\GeneralSubjects\Female5\Project 1\Capture day 1\Session 1\Female5.ASF
:FULLY-SPECIFIED
:DEGREES
66
root 43.9832 16.026 3.62162 165.355 -82.2126 -153.263
lowerback 5.95259 0.561726 0.947581
upperback -8.69997 0.898264 2.49024
thorax -12.814 0.385296 2.06205
lowerneck -17.5083 -4.80997 -3.6667
upperneck 27.384 -6.16488 -0.480543
head 12.0067 -3.39902 -0.550383
rclavicle -1.70706e-014 1.23246e-014
rhumerus -51.045 18.8687 -85.5075
rradius 37.9565
rwrist -16.3688
rhand -22.4202 -20.7793
rfingers 7.12502
rthumb 4.00305 -50.7214
lclavicle -1.70706e-014 1.23246e-014
lhumerus -49.2132 7.47673 71.9539
lradius 37.7274
lwrist 6.1725
lhand -22.3405 28.6955
lfingers 7.12502
lthumb 4.07994 58.6361
rfemur -0.698706 30.3435 32.8828
rtibia -6.80891
rfoot -25.4123 -30.761
rtoes -12.6317
lfemur -3.46016 -27.2501 -26.2663
ltibia -0.714934
lfoot -31.8878 13.4383
ltoes -49.0066
67
root 43.9558 16.0243 3.61075 165.831 -82.2078 -153.666
lowerback 5.81267 0.538044 0.808039
upperback -8.71002 0.84509 2.50218
thorax -12.7394 0.372929 2.1622
lowerneck -17.406 -4.75465 -3.76681
upperneck 27.2923 -6.11189 -0.291976
head 11.9601 -3.36131 -0.450526
rclavicle 1.16538e-014 1.27222e-014
rhumerus -51.2384 18.8025 -85.5406
rradius 37.9072
rwrist -16.2705
rhand -21.5507 -21.0693
rfingers 7.12502
rthumb 4.84264 -50.9939
lclavicle 1.16538e-014 1.27222e-014
lhumerus -49.2317 7.9153 71.6046
lradius 37.5483
lwrist 6.49224
lhand -21.9148 28.5781
lfingers 7.12502
lthumb 4.49104 58.5105
rfemur -0.777356 30.39 32.8297
rtibia -6.48516
rfoot -27.6099 -31.0186
rtoes -11.7883
lfemur -3.49613 -27.3407 -26.3266
ltibia -0.462121
lfoot -32.0198 13.5018
ltoes -49.895
68
root 43.9228 16.022 3.60012 166.342 -82.1937 -154.134
lowerback 5.69151 0.516426 0.683416
upperback -8.6985 0.797781 2.50862
thorax -12.6509 0.361954 2.24626
lowerneck -17.3659 -4.70983 -3.96501
upperneck 27.2527 -6.07593 0.00552257
head 11.9545 -3.32673 -0.299996
rclavicle 6.06293e-015 1.03368e-014
rhumerus -51.4036 18.765 -85.5838
rradius 37.8807
rwrist -16.1701
rhand -21.5298 -21.2343
rfingers 7.12502
rthumb 4.86282 -51.1585
lclavicle 6.06293e-015 1.03368e-014
lhumerus -49.2477 8.27429 71.3923
lradius 37.3308
lwrist 6.11395
lhand -22.0611 28.604
lfingers 7.12502
lthumb 4.34979 58.5394
rfemur -0.78184 30.4384 32.7929
rtibia -6.22787
rfoot -28.956 -31.1692
rtoes -10.4788
lfemur -3.33997 -27.5331 -26.4313
ltibia -0.470218
lfoot -32.1386 13.9687
ltoes -50.5545
69
root 43.8888 16.0204 3.58635 166.394 -82.1947 -154.17
lowerback 5.67521 0.486799 0.584875
upperback -8.69115 0.747866 2.53214
thorax -12.6325 0.348796 2.33534
lowerneck -17.3613 -4.68204 -4.01257
upperneck 27.1951 -6.03904 0.0792547
head 11.9348 -3.30446 -0.257624
rclavicle -1.50331e-014 -4.53229e-014
rhumerus -51.5862 18.7046 -85.6031
rradius 37.8762
rwrist -16.1784
rhand -21.6495 -21.4895
rfingers 7.12502
rthumb 4.74721 -51.4163
lclavicle -1.50331e-014 -4.53229e-014
lhumerus -49.4158 8.16348 71.5396
lradius 37.3714
lwrist 5.48449
lhand -22.7459 28.8354
lfingers 7.12502
lthumb 3.68844 58.7832
rfemur -0.806551 30.4498 32.7972
rtibia -5.90422
rfoot -30.3906 -31.4382
rtoes -9.22606
lfemur -3.14868 -27.6934 -26.4496
ltibia -0.539431
lfoot -32.5689 13.5609
ltoes -49.2859
70
root 43.8537 16.0212 3.56882 166.165 -82.2237 -153.901
lowerback 5.70857 0.450576 0.482277
upperback -8.72022 0.69006 2.56851
thorax -12.6874 0.332915 2.44352
lowerneck -17.3701 -4.68614 -3.99896
upperneck 27.1874 -6.04497 0.0684385
head 11.9327 -3.30697 -0.2649
rclavicle 9.56651e-015 3.22031e-014
rhumerus -51.7827 18.6271 -85.6096
rradius 37.7814
rwrist -16.1965
rhand -21.5043 -21.4066
rfingers 7.12502
rthumb 4.88744 -51.3302
lclavicle 9.56651e-015 3.22031e-014
lhumerus -49.6488 7.97625 71.7087
lradius 37.4648
lwrist 4.87052
lhand -23.316 28.7788
lfingers 7.12502
lthumb 3.13797 58.7354
rfemur -0.78164 29.7603 32.8714
rtibia -5.78953
rfoot -30.9035 -30.9635
rtoes -8.87484
lfemur -2.93456 -27.8124 -26.4137
ltibia -0.572687
lfoot -33.4289 12.0222
ltoes -47.5902
